<svg xmlns="http://www.w3.org/2000/svg" xmlns:xlink="http://www.w3.org/1999/xlink" viewBox="0 0 349.9 278.31"><defs><linearGradient id="a" x1="228.75" y1="286.82" x2="578.65" y2="286.82" gradientUnits="userSpaceOnUse"><stop offset="0" stop-color="#27a3ff"/><stop offset="0.02" stop-color="#22a2ff"/><stop offset="0.1" stop-color="#0f9ffd"/><stop offset="0.19" stop-color="#049dfc"/><stop offset="0.28" stop-color="#009cfc"/><stop offset="0.67" stop-color="#3737ed"/><stop offset="0.9" stop-color="#4e34e8"/><stop offset="1" stop-color="#2d95e2"/></linearGradient></defs><path d="M514.18,389.25c-7.21-11.87-14.1-23.36-21.22-34.71-.62-1-2.73-1.44-4.15-1.47-7.92-.13-15.85-.06-24.64-.06l11.11-18.39c3.14-5.18,6.14-10.45,9.51-15.47a6.5,6.5,0,0,1,4.47-2.48c6.79-.27,13.61-.27,20.4,0a6.28,6.28,0,0,1,4.47,2.46q32.08,52.58,63.89,105.3a12.16,12.16,0,0,1,.63,1.54H363.94c5.6-9.3,11-18.21,16.34-27.11s10.89-17.92,16.33-26.89,10.77-17.65,16.06-26.53,10.44-18.1,15.85-27c5.27-8.7,10.84-17.21,16.18-25.87,5.5-8.92,10.88-17.93,16.31-26.9l16.07-26.52q8.15-13.45,16.31-26.9c5.42-8.94,10.82-17.9,16.58-27.42-1.76-.17-3-.38-4.17-.38-11.39,0-22.77.12-34.15-.11-3.41-.06-5.23,1.07-7,4Q413,273.83,361.2,359.24c-.61,1-1.28,2-2.25,3.44l-130.2-214.9h5.09q65,0,130-.08c2.85,0,4.5.76,6,3.28,9.52,16,19.27,31.84,28.8,47.83.8,1.34,1.25,3.79.56,5-6.3,10.84-12.89,21.52-19.81,32.92-1.08-1.61-2-2.83-2.74-4.1-9-14.78-18-29.52-26.76-44.4-1.74-3-3.66-3.93-7-3.89-16.11.18-32.21.08-49.29.08L359,292.5c4.46-7.32,8.6-14.06,12.71-20.84q36.38-60.06,72.72-120.15c1.34-2.22,2.56-3.86,5.71-3.85,40.66.13,81.31.1,122,.12.58,0,1.15.09,2.74.21L428.7,389.25Z" transform="translate(-228.75 -147.66)" style="fill:url(#a)"/></svg>